# xmcd CD database file generated by OrangeCD 5.2
#
# Track frame offsets:
#	150
#	10516
#	24730
#	35111
#	47273
#	59582
#	70649
#	84743
#	95297
#	108067
#	121342
#	132854
#	143410
#	153964
#	173916
#	186470
#	198958
#	212018
#	232115
#	243607
#	259319
#	277945
#	290623
#	301204
#	314483
#	331784
#
# Disc length: 4779 seconds
#
# Revision: 0
# Processed by: cddbd v1.5.2PL0 Copyright (c) Steve Scherf et al.
# Submitted via: OrangeCD 5.2
#
DISCID=6d12a91a
DTITLE=Various Artist - Vintage Doo Wop
DYEAR=2006
DGENRE=Dance Doo Wop
TTITLE0=Little Anthony and The Imperials - Tears On My Pillow
TTITLE1=The Five Satins - In The Still Of The Night
TTITLE2=The Paradons - Diamonds And Pearls  
TTITLE3=The Del-Vikings - Come Go With Me
TTITLE4=The Spaniels - Goodnight Sweetheart Goodnight
TTITLE5=Little Anthony and The Imperials - Teardrops
TTITLE6=Donnie Elbert - What Can I Do
TTITLE7=Frankie Lymon and The Teenagers - Why Do Fools Fall In Love
TTITLE8=Robert and Johnny - We Belong Together
TTITLE9=James Brown - It Hurts To Tell
TTITLE10=The Dominoes - Sixty Minute Man
TTITLE11=The Tune Weavers - Happy Happy Birthday Baby
TTITLE12=The Dubs - Don't Ask Me To Be Lonely
TTITLE13=The Commodores - Easy
TTITLE14=Jackie Wilson - Lonely Teardrops
TTITLE15=Smokey Robinson and The Miracles - Ooo Baby Baby
TTITLE16=Smokey Robinson and The Miracles - You've Really Got A Hold On Me
TTITLE17=The Temptations - Life Is But A Dream
TTITLE18=The Students - Every Day Of The Week
TTITLE19=Simply Red - If You Don't Know Me By Now
TTITLE20=The Dells - Oh, What A Night
TTITLE21=James Brown - Please Please Please
TTITLE22=Dion and The Belmonts - I Wonder Why
TTITLE23=The Manhattan Transfer - Morse Code Of Love
TTITLE24=The Temptations - Just My Imagination (Running Away With Me)
TTITLE25=The Temptations - For Your Love   You Send Me (Medley)
EXTD=
EXTT0=
EXTT1=
EXTT2=
EXTT3=
EXTT4=
EXTT5=
EXTT6=
EXTT7=
EXTT8=
EXTT9=
EXTT10=
EXTT11=
EXTT12=
EXTT13=
EXTT14=
EXTT15=
EXTT16=
EXTT17=
EXTT18=
EXTT19=
EXTT20=
EXTT21=
EXTT22=
EXTT23=
EXTT24=
EXTT25=
PLAYORDER=
